<svg width="240" height="324" viewBox="0 0 240 324" fill="none" xmlns="http://www.w3.org/2000/svg">
<path fill-rule="evenodd" clip-rule="evenodd" d="M200.637 294.771C204.72 294.574 203.078 287.43 202.785 284.806C199.552 275.222 200.312 264.766 199.041 254.721C198.249 245.344 197.231 235.996 196.375 226.626C194.694 207.606 182.62 168.886 168.842 162.658C167.107 155.04 159.938 147.928 150.869 147.928C144.683 140.603 137.237 135.448 127.687 136.489C123.741 136.669 119.913 140.856 116.132 141.664C114.015 141.956 95.2244 141.205 91.4604 143.441C88.8386 144.788 86.4718 147.276 87.2427 150.445C88.4727 154.283 84.6502 150.13 76.6764 154.227C60.4165 163.996 70.1327 177.065 70.5633 177.47C60.4165 191.593 51.5478 203.051 47.4443 220.314C44.7849 233.13 45.0842 246.36 42.856 259.242C42.0692 263.708 40.8623 268.022 39.5562 272.36C38.1407 278.036 37.4525 292.185 36.6722 292.311C35.251 292.665 37.4936 295.584 38.9995 295.586C80.7511 302.514 123.161 295.873 165.136 294.788C176.966 294.377 188.808 294.282 200.637 294.771Z" fill="white"/>
<path fill-rule="evenodd" clip-rule="evenodd" d="M137.356 178.717C137.376 178.526 137.633 178.526 137.653 178.717L137.948 181.564C138.307 185.04 138.652 188.51 138.902 192.003C139.214 196.359 139.423 200.714 139.524 205.079C139.874 220.283 139.944 235.495 139.974 250.703C142.029 250.56 144.085 250.423 146.143 250.29C147.538 250.2 148.934 250.113 150.33 250.028L153.889 249.812L155.354 249.722C156.345 249.661 157.47 249.412 158.162 250.289C158.439 250.641 158.578 251.097 158.32 251.514C157.724 252.476 156.808 252.442 155.773 252.484C154.796 252.524 153.819 252.562 152.842 252.6C150.749 252.681 148.656 252.758 146.562 252.817C144.364 252.878 142.167 252.928 139.971 252.966C139.948 259.386 139.683 265.798 139.396 272.211L139.266 275.097C138.914 282.901 138.537 290.712 138 298.506C137.956 299.144 137.053 299.143 137.009 298.506C136.405 289.729 136.006 280.933 135.61 272.144C135.324 265.772 135.157 259.398 135.077 253.023C134.787 253.025 134.496 253.029 134.206 253.03C125.961 253.066 117.718 253.102 109.473 253.024C109.487 253.04 109.5 253.057 109.509 253.078C110.106 254.487 110.163 256.286 110.148 257.798C110.131 259.532 109.898 261.245 109.499 262.932C108.068 268.974 104.378 274.386 100.175 278.86L100.038 279.005C99.047 280.053 97.9098 281.106 97.3011 282.441C96.6794 283.804 96.4636 285.398 96.1568 286.862L96.121 287.03L94.9214 292.573C94.5403 294.334 94.4321 296.901 93.039 298.172C91.7393 299.357 90.0174 298.738 89.4058 297.212C88.9281 296.021 89.4039 294.713 89.6868 293.522L91.9032 284.202C92.2674 282.682 92.6654 281.152 93.4514 279.787C94.2565 278.388 95.4369 277.374 96.6413 276.337C98.9219 274.373 101.016 272.124 102.786 269.689C104.556 267.255 106.069 264.572 107.13 261.751C107.661 260.339 108.096 258.872 108.396 257.393C108.682 255.989 108.679 254.536 108.984 253.147C109.005 253.051 109.086 252.985 109.179 252.956C109.157 252.894 109.191 252.811 109.277 252.805L116.02 252.372C122.014 251.985 128.008 251.588 133.997 251.135L135.055 251.058C134.973 242.552 135.043 234.045 135.196 225.536C135.337 217.733 135.34 209.928 135.572 202.126C135.687 198.254 135.936 194.391 136.213 190.527C136.496 186.575 136.949 182.657 137.356 178.717ZM74.0409 223.96C73.9691 223.526 74.514 223.258 74.7652 223.654C77.6365 228.182 79.0209 233.1 79.6045 238.398C80.12 243.074 79.968 247.818 79.7114 252.506C79.4376 257.507 79.1181 262.506 78.7951 267.504L78.2988 275.168L77.0534 294.381C76.9642 295.756 76.6524 297.006 75.4695 297.644C75.3197 297.77 75.1636 297.882 74.9817 297.979C74.3426 298.321 73.495 298.148 73.1255 297.492L73.2737 297.59C73.4027 297.671 73.2578 297.557 72.8388 297.249L72.4833 296.789C72.2249 296.401 72.0599 296.019 71.9935 295.557C71.8904 294.839 72.024 294.052 72.0709 293.331L72.8872 280.732C73.5221 270.938 74.2634 261.146 74.8222 251.346C75.0825 246.779 75.2648 242.207 75.1414 237.632C75.0185 233.082 74.7867 228.455 74.0409 223.96ZM98.8805 139.619L99.0398 139.592C104.743 138.645 110.945 138.822 116.157 141.572C116.2 141.595 116.18 141.667 116.132 141.664L114.454 141.597C109.143 141.389 103.848 141.266 98.6264 142.514L98.0918 142.643C96.2111 143.102 94.2472 143.664 92.7366 144.907C91.2928 146.094 90.5739 147.926 89.8826 149.613L89.7902 149.836C89.0888 151.502 88.2011 153.082 86.6638 154.123C84.6726 155.473 82.2778 155.307 79.9947 155.491C75.9747 155.814 72.688 158.728 71.0528 162.295C70.0626 164.454 69.6402 166.876 69.5566 169.237C69.5137 170.44 69.5076 171.689 69.6677 172.883C69.7188 173.265 70.1908 174.656 70.4314 174.623C70.9661 174.549 71.455 174.828 71.6217 175.255C72.9426 173.979 74.3014 172.739 75.704 171.544C79.2003 168.565 82.9661 165.866 86.9321 163.546C89.9589 161.775 93.1516 160.021 96.4577 158.695C96.1957 158.689 95.9373 158.741 95.6874 158.871C95.578 158.929 95.4692 158.791 95.5556 158.7C96.5969 157.604 97.8442 157.448 99.1017 157.741C99.37 157.655 99.6385 157.573 99.9081 157.494C100.042 157.455 100.109 157.64 99.9996 157.711L99.6907 157.909C101.062 158.368 102.409 159.272 103.476 159.985C106.539 162.033 109.235 164.536 111.967 166.993L112.464 167.438C114.87 169.587 117.337 171.675 120.07 173.399C121.501 174.301 123.003 175.136 124.58 175.756C125.932 176.289 128.133 176.625 128.766 178.054C129.329 178.738 129.094 179.611 128.435 180.071C127.323 181.295 125.099 180.504 123.774 179.995C122.177 179.38 120.63 178.641 119.155 177.775C116.29 176.093 113.649 174.001 111.189 171.776C108.619 169.452 106.195 166.983 103.696 164.586C102.613 163.548 101.555 162.485 100.47 161.448L99.9257 160.932C99.3721 160.412 98.5835 159.603 97.7403 159.113C96.1518 160.061 94.5388 160.97 92.9646 161.942C90.7672 163.299 88.6345 164.754 86.5347 166.258C82.4923 169.151 78.6616 172.392 75.1053 175.866C68.583 182.236 63.0263 189.511 58.172 197.214L57.8034 197.801C55.0449 202.21 52.4363 206.761 50.5866 211.633C48.5515 216.993 47.5617 222.631 47.024 228.321C46.4904 233.971 46.3104 239.65 45.714 245.294C45.1023 251.083 43.8973 256.744 42.5266 262.395L42.1997 263.735C40.9594 268.795 39.6793 273.856 39.0417 279.036C38.7014 281.803 38.4966 284.608 38.5429 287.397C38.5894 290.203 39.0301 292.947 39.3857 295.723C39.5219 296.786 38.4757 297.674 37.5396 297.815C36.463 297.977 35.538 297.289 35.2034 296.289C34.1602 293.17 33.9707 289.722 34.0034 286.449C34.0364 283.125 34.4604 279.823 35.057 276.557C36.2304 270.133 38.0411 263.841 39.5559 257.493C40.8909 251.898 41.7869 246.294 42.2699 240.562C42.7712 234.616 43.0714 228.649 43.986 222.746C44.8888 216.917 46.5873 211.35 49.149 206.036C51.4814 201.197 54.3888 196.643 57.437 192.228C61.1386 186.868 65.204 181.767 69.7484 177.119C69.3402 177.102 68.9211 176.97 68.5361 176.73C67.3585 175.995 66.8101 174.557 66.6415 173.245C66.2469 170.175 66.3421 166.969 67.1314 163.968C68.4047 159.125 71.7094 154.822 76.4988 153.077C77.7316 152.628 79.0421 152.464 80.3485 152.431C81.5883 152.4 82.9423 152.562 84.1385 152.169C86.0425 151.543 86.8586 149.3 87.5735 147.599L87.6064 147.521C88.5231 145.354 89.6234 143.497 91.6089 142.144C93.7272 140.7 96.3813 140.043 98.8805 139.619ZM153.07 148.189C154.784 147.594 156.927 148.134 158.603 148.653C160.47 149.233 162.195 150.299 163.674 151.566C165.235 152.901 166.525 154.551 167.436 156.393L167.523 156.571C168.356 158.28 169.303 160.626 168.884 162.504C168.872 162.557 168.858 162.609 168.842 162.658C172.243 164.333 175.383 166.43 178.118 169.089C181.302 172.184 183.998 175.706 186.28 179.511C195.342 194.624 196.937 212.775 198.007 230.01L198.274 234.381C198.855 243.817 199.535 253.231 201.302 262.538L201.431 263.21C203.319 272.953 206.022 282.772 205.749 292.767C205.666 295.762 201.242 295.742 201.114 292.767C200.631 281.571 198.019 270.761 196.251 259.741C193.139 240.351 194.698 220.362 190.289 201.166C188.559 193.633 185.878 186.326 182.051 179.602C180.16 176.281 177.997 173.071 175.463 170.205C173.283 167.739 171.017 165.366 168.469 163.293C167.655 164.109 166.029 163.693 165.604 162.504C165.312 161.687 165.397 160.731 165.209 159.875C165.035 159.081 164.796 158.293 164.476 157.545C163.839 156.054 162.905 154.622 161.826 153.415C160.66 152.11 159.321 151.027 157.822 150.132C156.312 149.231 154.662 148.962 153.07 148.303C153.016 148.281 153.011 148.209 153.07 148.189ZM159.729 251.813C159.731 251.734 159.824 251.697 159.881 251.75C160.482 252.303 160.845 253.097 161.287 253.777C161.797 254.561 162.333 255.33 162.894 256.079C164.019 257.578 165.272 258.992 166.534 260.377C167.709 261.665 168.96 262.898 170.258 264.061C171.665 265.322 173.241 266.446 174.519 267.841C177.186 270.753 177.617 274.749 178.179 278.501L178.241 278.907C178.584 281.133 178.892 283.366 179.169 285.602C179.303 286.69 179.438 287.778 179.548 288.869L179.581 289.214C179.679 290.282 179.706 291.365 179.093 292.297C178.437 293.295 176.946 293.645 176.059 292.688C174.535 291.044 174.821 288.125 174.623 286.01C174.459 284.262 174.273 282.515 174.065 280.771L173.96 279.9C173.715 277.916 173.516 275.893 173.062 273.944C172.662 272.227 171.9 270.931 170.65 269.688C169.39 268.435 168.081 267.266 166.919 265.917C165.686 264.486 164.573 262.952 163.571 261.35C162.714 259.981 162.027 258.491 161.397 257.002L161.293 256.754C160.684 255.302 159.681 253.412 159.729 251.813ZM181.724 189.455C181.737 189.253 182.037 189.249 182.041 189.455C182.079 191.197 182.115 192.938 182.151 194.68C182.442 208.714 182.263 222.781 183.67 236.767C184.334 243.361 185.556 249.859 186.971 256.329C187.695 259.64 188.454 262.943 189.175 266.254C189.879 269.481 190.633 272.724 191.19 275.981C191.738 279.182 192.229 282.408 192.45 285.65L192.477 286.073C192.572 287.644 193.024 289.954 192.16 291.346C191.223 292.854 189.43 292.881 188.426 291.442C187.483 290.09 187.718 287.686 187.551 286.073C187.382 284.431 187.203 282.787 187 281.148C186.603 277.95 186.081 274.761 185.537 271.585C184.406 264.972 182.764 258.443 181.553 251.841C180.311 245.076 179.428 238.262 179.391 231.374C179.354 224.428 180.089 217.495 180.46 210.564C180.837 203.524 181.265 196.49 181.724 189.455ZM115.454 145.804C115.83 144.535 117.16 143.742 118.456 144.099C119.645 144.425 120.626 145.868 120.161 147.103C119.654 148.45 118.768 149.599 118.021 150.823C117.331 151.954 116.325 152.845 115.622 153.956L116.396 154.792C116.784 155.208 117.172 155.623 117.565 156.03L118.916 157.43C119.969 158.518 121.027 159.6 122.116 160.65C125.317 163.739 128.569 166.726 132.154 169.372C132.97 169.974 133.792 170.572 134.638 171.133L134.953 171.342C135.533 171.722 136.18 172.095 136.881 172.031C138.584 171.874 140.122 170.065 141.292 168.939L141.354 168.881C144.253 166.121 146.938 163.103 149.286 159.858C149.807 159.137 150.312 158.404 150.803 157.662C149.668 156.336 149.939 153.747 149.877 152.139C149.833 151.008 149.829 149.877 149.823 148.745L149.82 148.517C149.806 147.784 149.773 147.082 150.248 146.479C150.276 146.444 150.333 146.445 150.368 146.464C151.019 146.805 151.22 147.376 151.498 148.017L151.527 148.083C151.865 148.852 152.188 149.629 152.516 150.402C152.859 151.212 153.173 152.034 153.492 152.854C153.64 153.235 153.782 153.618 153.92 154.002C154.004 154.248 154.091 154.493 154.181 154.737L154.202 154.756C154.32 154.856 154.421 154.962 154.507 155.072C154.87 155.253 155.159 155.585 155.294 156.071C155.589 157.13 154.979 157.994 154.435 158.834C152.225 162.25 149.706 165.504 146.906 168.457C145.515 169.923 144.052 171.324 142.529 172.653L142.262 172.884C140.894 174.06 139.409 175.174 137.581 175.45C135.443 175.772 133.702 174.708 132.065 173.482L131.902 173.359C130.35 172.184 128.829 170.967 127.356 169.695C124.352 167.1 121.494 164.314 118.957 161.258C116.49 158.285 114.052 154.961 112.531 151.384C112.438 151.166 112.682 150.938 112.873 151.12C113.616 151.827 114.33 152.573 115.037 153.328C115.056 152.217 114.851 151.095 114.965 149.976C115.105 148.616 115.064 147.114 115.454 145.804Z" fill="black"/>
<path fill-rule="evenodd" clip-rule="evenodd" d="M165.092 98.0192C164.59 91.5214 165.368 84.7109 162.864 78.5348C158.497 68.2875 146.253 64.8708 136.76 60.9695C132.958 59.8454 120.161 59.6882 115.709 58.2005C105.631 54.8333 103.223 50.8213 95.2159 57.2326C93.8642 58.3278 93.0185 59.5181 92.4016 61.1444L92.427 61.1514C92.2508 61.8294 92.4396 62.506 92.8366 63.0227C89.3646 66.573 87.9117 71.8956 89.6932 76.6216C95.5066 88.9199 95.2332 95.5696 93.3601 108.791C90.9141 121.134 96.5036 125.642 105.76 132.358C105.384 133.089 105.305 134.061 105.797 134.706C116.501 149.754 136.684 156.939 153.977 149.301C160.996 146.175 164.13 138.697 165.919 131.949C168.002 124.394 168.642 116.432 166.946 108.736C166.262 105.176 165.371 101.642 165.092 98.0192Z" fill="white"/>
<path fill-rule="evenodd" clip-rule="evenodd" d="M103.347 26.0292C104.647 25.834 105.628 26.6405 106.095 27.7771L106.119 27.8383C106.269 28.2251 106.436 28.6013 106.616 28.9712C109.867 27.3755 114.506 27.7855 116.564 31.017C118.032 33.325 117.137 36.0641 116.583 38.5115L116.22 40.1241C116.922 40.5713 117.452 41.3721 117.427 42.2013L117.424 42.2651L117.276 44.5139C117.745 44.0383 118.174 43.5205 118.556 42.9689C118.821 42.4849 119.106 42.0094 119.412 41.5486C121.214 38.837 125.26 41.1936 123.773 44.0975C123.487 44.6576 123.166 45.1881 122.822 45.6996C122.433 46.4541 122.114 47.2297 121.869 48.0265C122.573 48.333 123.113 49.0135 123.171 50.0407C123.304 52.4395 122.044 54.441 120.042 55.6985C119.452 56.0684 118.844 56.1403 118.292 56.0029C118.195 56.1339 118.098 56.265 118.005 56.3981C118.804 57.0469 119.524 57.7867 120.143 58.6067C122.006 58.3277 123.88 58.1967 125.754 58.1925C128.044 57.0702 130.787 57.0934 133.248 57.514C134.832 57.7846 136.354 58.3108 137.913 58.6891C139.556 59.0865 141.225 59.1013 142.888 59.3718C144.984 59.7121 146.822 60.6801 147.978 62.225C149.247 62.2631 150.582 62.783 151.69 63.4889C154.267 65.1332 156.83 66.8008 159.401 68.4556C160.388 69.091 160.757 70.1052 160.575 71.2365L160.563 71.3089L160.476 71.7781L160.68 72.0669C161.466 73.1784 162.323 74.3428 162.832 75.5697C163.774 76.9287 164.625 78.3532 165.38 79.8221C166.396 81.7961 167.235 83.8884 167.803 86.0358C167.944 86.5789 168.086 87.1263 168.179 87.6801C168.312 88.4621 168.107 89.0686 167.995 89.8189C167.856 90.77 167.805 91.7338 167.657 92.687C167.558 93.3189 167.021 93.6296 166.459 93.6465C166.671 95.2549 166.823 96.8738 166.968 98.4801C167.173 100.775 167.313 103.077 167.433 105.379C168.054 106.281 169.324 106.995 170.241 107.243C171.511 107.583 172.842 107.213 174.042 106.78C174.796 106.507 175.415 107.456 175.047 108.09C173.892 110.081 171.42 110.073 169.548 109.191C168.756 108.819 168.061 108.28 167.545 107.579C167.577 108.247 167.611 108.914 167.644 109.584L167.676 110.191C168.057 117.278 168.878 124.609 167.547 131.626C165.242 143.781 155.188 153.036 142.905 153.755C136.46 154.132 131.092 152.227 128.423 151.165C125.754 150.102 126.792 147.936 128.645 148.555C131.836 149.622 137.7 151.211 142.947 150.525C155.315 148.908 165.802 142.724 164.725 116.09C164.572 112.313 164.102 108.534 164 104.757C163.903 101.065 163.939 97.3705 163.776 93.6803L163.722 92.4212C163.658 90.9501 163.59 89.4721 163.48 87.9992C163.347 87.4286 163.237 86.8495 163.075 86.2894C162.633 84.7655 162.056 83.284 161.34 81.87C161.182 81.9905 161.004 82.0772 160.812 82.111C159.352 82.3731 157.983 82.2991 156.616 81.6904C155.978 81.4093 155.416 81.0352 154.892 80.5723C154.643 80.3547 154.476 80.1433 154.345 79.9235C153.684 79.9341 153.023 79.7354 152.609 79.2599C152.136 78.7179 152.058 78.158 152.243 77.6398L152.262 77.5881L152.216 77.5712C151.658 79.0147 150.547 80.2849 149.328 81.143C147.401 82.5041 144.99 82.8972 142.679 82.9331C140.127 82.9712 137.435 82.5781 134.917 82.1765C134.252 82.0708 133.59 81.9504 132.942 81.7876C132.916 81.813 132.891 81.8426 132.863 81.8679C130.702 83.937 127.662 84.4696 124.92 83.2882C123.335 82.6055 122.006 81.5065 120.832 80.2469C120.815 80.9063 120.781 81.5657 120.724 82.2188L120.7 82.4781C120.583 83.6944 120.358 84.9846 119.44 85.8624C117.954 87.2848 115.799 86.7142 114.086 85.7885C114.088 85.8329 114.088 85.8794 114.088 85.9258C114.551 87.4983 115.016 89.0729 115.48 90.6474L115.58 90.9828C115.918 92.1009 116.289 93.2203 116.391 94.3904C116.585 96.6265 115.098 98.8351 112.613 98.0848C111.31 97.6927 110.266 96.5965 109.264 95.7185L108.633 95.1724C110.266 100.513 111.399 106.044 111.504 111.618C111.511 111.92 111.251 112.148 110.963 112.159C110.292 112.186 109.569 112.053 108.893 111.785C108.855 111.782 108.817 111.78 108.777 111.774C107.623 111.607 106.552 111.191 105.608 110.576C105.825 111.267 105.923 112.009 105.866 112.784C105.851 112.972 105.557 113.038 105.515 112.831C104.97 110.149 101.832 108.122 99.1283 108.635C96.2254 109.187 94.0874 111.685 93.5635 114.528C93.0015 117.582 94.0769 121.114 96.0691 123.47C96.986 124.556 98.1924 125.463 99.6247 125.691C100.28 125.795 100.96 125.759 101.596 125.573C101.866 125.493 102.12 125.381 102.378 125.275C102.754 125.123 103.193 125.1 103.548 124.939C104.353 124.578 105.162 125.319 104.754 126.146C104.399 126.867 104.08 127.353 103.491 127.725C103.968 128.308 104.402 129.12 104.562 129.337C105.382 130.445 106.214 131.491 107.148 132.503C108.099 133.53 109.136 134.469 110.232 135.337L110.693 135.702C111.75 136.54 112.669 137.316 113.414 138.518C114.002 139.467 113.241 140.754 112.14 140.74C108.697 140.691 106.193 137.664 104.41 135.02C104.156 134.642 103.918 134.243 103.696 133.833C103.616 133.962 103.527 134.082 103.428 134.192L103.624 134.72C104.207 136.276 101.695 137.292 100.966 135.84C100.436 134.788 99.8212 133.786 99.1367 132.839C98.7332 132.782 98.3381 132.537 98.1184 132.22C97.5628 131.415 96.9395 130.601 96.4135 129.743C96.1219 129.466 95.8219 129.2 95.5156 128.94C95.4269 129.018 95.336 129.096 95.2494 129.179C94.8649 130.056 94.3895 130.857 93.8001 131.611L93.6737 131.772C92.5445 133.196 91.0737 134.653 89.2536 135.001C88.698 135.107 88.1635 134.416 88.6557 133.974C89.9297 132.829 91.436 132.049 92.6107 130.77C93.1894 130.14 93.7207 129.446 94.1777 128.719L94.2818 128.551C94.3578 128.426 94.436 128.302 94.5163 128.175C93.986 127.813 93.4557 127.45 92.9254 127.086C91.4657 128.334 89.5646 128.905 87.95 129.938L87.7895 130.043C86.3297 131.02 84.7916 128.86 85.9621 127.674C87.2523 126.372 88.3293 124.819 89.4723 123.372C88.9348 122.381 88.6804 121.21 88.5852 120.027C88.5476 119.692 88.5182 119.356 88.4888 119.021C87.6691 119.034 86.8452 118.753 86.148 118.269L85.8839 118.081C85.0367 118.351 84.1473 118.482 83.2959 118.459C81.2931 118.4 80.4733 116.111 81.7262 114.663C83.0043 113.184 85.2416 112.86 87.0142 113.579C87.0712 113.549 87.1304 113.518 87.1874 113.486C87.1029 113.097 87.1217 112.744 87.2178 112.434L87.19 112.246C86.8002 111.647 86.5439 110.964 86.4467 110.242C86.3698 109.671 86.3854 109.104 86.5177 108.539C86.5616 108.352 86.6531 108.157 86.7231 107.961C86.579 107.597 86.4943 107.221 86.4681 106.843C86.4277 106.795 86.3876 106.745 86.3495 106.692C85.47 105.457 85.6477 103.968 86.4847 102.969C86.4885 102.905 86.4945 102.841 86.5031 102.778C86.4541 102.668 86.4091 102.556 86.3681 102.444C85.5503 101.618 84.9499 100.625 85.0619 99.3946C85.1276 98.6705 85.425 98.0187 85.8752 97.5315C85.7954 97.2952 85.7878 97.0215 85.8845 96.7931C85.166 94.8812 85.2569 92.5785 85.774 90.4403C85.66 90.1148 85.6008 89.7619 85.6135 89.3878C85.6726 87.8005 87.0459 86.3422 88.6726 86.3612C88.8685 86.3629 89.0519 86.3885 89.2281 86.4259L89.2304 86.3881C89.2927 85.9117 89.4237 85.4714 89.6149 85.0764C89.5209 85.0424 89.4338 84.9936 89.3576 84.9287C88.3152 85.485 87.2121 85.9102 86.0557 86.2C85.2053 86.413 84.3343 85.4461 84.8628 84.6476C85.1081 84.2771 85.3788 83.9444 85.6703 83.6405C85.2558 83.6428 84.835 83.671 84.4093 83.7257C83.6445 83.825 82.7909 83.303 82.2945 82.5971C81.6776 83.1973 81.0585 83.7954 80.4395 84.3936C78.8719 85.9132 76.5036 84.7951 76.2564 82.7915C75.7895 82.6668 75.3543 82.4555 74.9719 82.1532C72.5001 83.2269 69.8402 83.8166 67.1212 83.9286C65.1691 84.0089 64.0283 81.7348 64.9409 80.1285C65.5536 79.0506 66.3142 78.0826 67.1909 77.2415C65.8304 77.6578 64.4254 77.9579 62.9909 78.1503C62.2156 78.2538 61.1191 77.6113 60.8085 76.8991C59.6212 74.16 59.7226 71.3046 61.0895 68.6395C61.1424 68.5338 61.2015 68.4324 61.2585 68.3309C61.4001 67.978 61.5543 67.6293 61.7212 67.2869C60.0395 65.5327 59.8938 62.9246 60.8001 60.7414C60.4367 60.1517 60.2973 59.4415 60.5445 58.799C61.248 56.9497 62.2621 55.242 63.5423 53.7752C63.4198 53.5385 63.3121 53.287 63.2212 53.0165C62.5008 50.829 63.3353 48.1893 65.0191 46.6654C66.0776 45.7059 67.2945 45.131 68.5938 44.7633C69.1409 43.7953 69.8445 42.9224 70.6642 42.1869C70.6959 42.1172 70.7276 42.0474 70.7635 41.9777C72.0395 39.5725 74.3635 38.2833 76.8543 37.9853C76.9515 37.0448 77.5853 36.1465 78.5064 35.8549C78.76 35.0412 79.1381 34.2634 79.6578 33.5575C80.4754 32.4458 81.8339 31.9216 83.1142 32.6508C83.8156 33.0502 84.4874 33.5089 85.117 34.0161C85.3998 33.8834 85.7203 33.7976 86.0821 33.7702L86.1733 33.7646L88.2564 33.6589C89.129 33.2722 89.9994 32.8664 90.8719 32.4711C91.3959 32.0379 91.9811 31.6765 92.6191 31.408C93.3416 31.1058 94.0811 30.9346 94.8226 30.8776C95.4247 30.681 96.0311 30.5077 96.648 30.3724C98.0973 30.0554 99.6142 29.8779 101.118 29.8927C101.149 29.5032 101.164 29.109 101.162 28.7102L101.159 28.5104C101.125 27.2318 102.145 26.2109 103.347 26.0292ZM101.887 128.333C101.68 128.378 101.471 128.414 101.262 128.439C101.325 128.595 101.389 128.752 101.45 128.908C101.619 129.003 101.79 129.094 101.961 129.179C101.911 128.891 101.881 128.602 101.887 128.333ZM91.0331 125.107L90.8927 125.365C90.8699 125.408 90.8475 125.449 90.8254 125.491C91.1233 125.467 91.4233 125.474 91.7191 125.508L91.7183 125.476C91.6802 125.463 91.6422 125.451 91.6059 125.434C91.4018 125.335 91.2121 125.226 91.0331 125.107ZM96.8994 113.302C98.7685 113.411 100.352 113.698 102.052 114.516L102.198 114.587C103.7 115.333 106.185 116.711 105.975 118.687C105.916 119.249 105.509 119.841 104.866 119.797C103.106 119.676 102.101 117.901 100.909 116.794C99.7071 115.678 98.2304 114.53 96.7747 113.763C96.569 113.655 96.65 113.313 96.8739 113.302L96.8994 113.302ZM88.4233 87.2658C87.9754 87.2806 88.1254 87.716 88.3557 87.3525C88.3747 87.3229 88.398 87.2933 88.4233 87.2658ZM112.6 58.2005C108.358 58.3121 104.089 60.8176 100.911 63.3503C98.1469 65.5536 95.7598 68.1743 93.6461 70.999C93.1023 72.4058 92.6354 73.8419 92.2409 75.2886C91.9811 76.2439 91.8184 77.2098 91.6008 78.1735L91.5332 78.469C91.3623 78.7886 91.2353 79.1324 91.1428 79.4877C91.5279 79.874 92.0276 80.1507 92.5777 80.282C92.755 80.3242 92.9022 80.4157 93.0186 80.5371C93.4614 79.7977 93.8485 79.0174 94.0737 78.1902L94.0819 78.152C94.9331 76.7573 95.8576 75.4059 96.8487 74.1008C99.5825 70.4973 102.593 67.2129 106.212 64.4801C108.956 62.4089 112.024 60.7857 115.286 59.7311C114.488 59.0867 113.581 58.5769 112.6 58.2005Z" fill="black"/>
<path fill-rule="evenodd" clip-rule="evenodd" d="M145.673 136.732C144.253 136.153 142.986 135.186 142.059 133.951C141.737 133.521 141.654 133.068 141.721 132.653C141.797 132.187 142.073 131.765 142.449 131.481C142.826 131.197 143.298 131.056 143.754 131.128C144.151 131.19 144.545 131.407 144.858 131.858L144.923 131.948C145.474 132.693 146.191 133.305 147.009 133.699C147.797 134.079 148.679 134.256 149.591 134.153C151.329 133.957 152.526 133.017 153.799 131.74C153.957 131.579 154.115 131.413 154.273 131.244C154.373 131.091 154.512 130.992 154.667 130.941C154.838 130.883 155.032 130.887 155.21 130.949C155.381 131.009 155.534 131.122 155.637 131.273C155.734 131.416 155.79 131.593 155.772 131.797C155.655 133.12 154.964 134.3 153.982 135.227C152.891 136.257 151.445 136.969 150.084 137.219C148.585 137.494 147.057 137.297 145.673 136.732ZM150.792 116.324C152.387 117.294 154.818 119.557 153.102 121.962C151.081 124.082 148.173 121.651 146.74 120.551C145.411 119.699 143.917 121.891 145.15 122.886C155.507 130.557 159.711 116.578 151.599 115.184C150.705 115.03 150.374 116.024 150.792 116.324ZM132.232 107.401C132.408 105.212 135.74 104.715 136.072 106.881C136.368 108.821 136.019 110.604 135.145 112.35C134.311 114.019 132.213 113.241 132.054 111.721C131.841 109.684 132.122 108.763 132.232 107.401ZM157.597 106.432C158.062 105.823 158.733 105.408 159.536 105.643C162.047 106.377 161.307 109.943 160.425 111.679C159.946 112.621 158.397 112.86 157.697 112.03C156.556 110.677 156.01 107.974 157.461 106.641C157.5 106.572 157.544 106.502 157.597 106.432ZM135.11 97.8235L135.507 97.754C136.734 97.5417 138.259 97.3378 139.127 98.3246C139.588 98.8479 139.746 99.8205 139.127 100.321C138.039 101.203 136.835 100.861 135.531 100.936C134.456 100.998 133.423 101.175 132.388 101.472C130.116 102.121 128.265 103.307 126.325 104.609C126.071 104.779 125.811 104.454 125.932 104.216C127.052 102.021 129.222 100.219 131.396 99.1197C132.557 98.5332 133.826 98.0467 135.11 97.8235ZM155.308 96.8405L155.612 96.9026C158.916 97.5934 163.208 98.9734 164.772 102.22C164.832 102.679 164.769 102.777 164.718 102.841L164.701 102.863C164.658 102.918 164.625 102.993 164.426 103.056C164.371 103.043 164.315 103.029 164.258 103.014C163.541 102.826 162.974 102.567 162.425 102.298L161.829 102.005C161.138 101.666 160.441 101.339 159.702 101.098C158.126 100.584 156.504 100.221 154.858 100.028C154.501 99.9858 154.157 99.8653 153.886 99.6588C153.629 99.4627 153.432 99.1913 153.342 98.8306C153.226 98.3637 153.26 98.0102 153.51 97.589C153.698 97.2727 153.968 97.0535 154.277 96.9276C154.592 96.7992 154.951 96.7689 155.308 96.8405Z" fill="black"/>
<path d="M127.843 149.853C127.604 149.853 127.33 149.711 127.093 149.649C126.833 149.58 126.588 149.516 126.343 149.399C126.017 149.243 125.637 149.18 125.32 149.012C124.862 148.77 124.281 148.615 123.779 148.515C122.363 148.231 121.167 147.285 119.937 146.582C119.607 146.394 119.248 146.262 118.942 146.034C118.225 145.501 117.532 144.924 116.755 144.473C116.266 144.19 115.831 143.809 115.487 143.359C115.245 143.043 114.861 142.817 114.648 142.488C114.591 142.4 114.471 142.358 114.408 142.261C114.314 142.114 114.17 141.972 114.045 141.852C113.77 141.588 113.543 141.275 113.297 140.988C113.129 140.792 112.946 140.597 112.794 140.387C112.719 140.282 112.583 140.206 112.521 140.099C112.378 139.848 111.938 139.69 111.703 139.533" stroke="black" stroke-width="3" stroke-linecap="round"/>
<path fill-rule="evenodd" clip-rule="evenodd" d="M167.019 110.406C166.422 112.033 165.512 113.726 164.4 115.095C159.902 118.906 155.53 116.796 153.311 111.631C152.467 107.981 154.707 104.049 157.079 101.364C160.506 97.9276 166.098 99.7308 167.674 103.815C167.77 104.345 167.828 104.873 167.855 105.399C167.823 107.109 167.617 108.57 167.019 110.195M123.777 107.126C129.703 100.074 140.791 99.6968 140.508 110.551C139.235 124.289 117.797 120.917 123.777 107.126ZM168.883 101.243C168.675 100.891 168.445 100.551 168.193 100.225C168.1 100.17 168.047 99.6784 167.705 99.6421C163.136 94.5995 155.109 97.4605 152.209 102.485C151.679 103.12 151.247 103.864 150.929 104.65C148.071 104.126 144.74 104.228 142.082 105.307C139.446 98.4232 131.468 97.8086 126.21 100.75C122.94 102.359 120.819 105.729 117.639 107.58C110.162 108.118 102.138 106.442 94.7967 108.318C89.0067 109.522 93.8469 112.455 94.8178 110.498C101.74 108.452 109.94 110.181 117.127 109.72C117.874 110.985 119.307 112.019 120.735 111.975C122.278 125.654 142.218 123.386 142.906 111.226C143.686 109.992 144.656 108.811 146.045 108.042C146.577 107.932 147.091 107.789 147.56 107.567C148.362 107.454 149.599 107.794 150.337 108.463C152.866 123.641 167.433 121.873 170.037 108.576C170.089 108.524 170.233 108.325 170.345 108.007C171.236 106.829 173.417 106.39 173.069 104.401C172.758 102.41 170.246 102.434 168.883 101.243Z" fill="black"/>
</svg>
